<svg width="24" height="24" viewBox="0 0 24 24" fill="none" xmlns="http://www.w3.org/2000/svg">
<path d="M11.285 9.23H19.515C19.0783 8.05467 18.3813 7.016 17.424 6.114C16.4673 5.21267 15.376 4.608 14.15 4.3L11.285 9.23ZM9.215 11.23L13.37 4.1C13.1867 4.06667 12.9587 4.04167 12.686 4.025C12.4133 4.00833 12.1847 4 12 4C10.9 4 9.875 4.20833 8.925 4.625C7.975 5.04167 7.13333 5.6 6.4 6.3L9.215 11.23ZM4.25 14H9.93L5.855 6.908C5.26967 7.62933 4.81433 8.41533 4.489 9.266C4.16367 10.1167 4.00067 11.028 4 12C4 12.35 4.021 12.6877 4.063 13.013C4.105 13.3383 4.16733 13.6673 4.25 14ZM9.889 19.7L12.742 14.77H4.484C4.92133 15.9453 5.625 16.984 6.595 17.886C7.565 18.788 8.66333 19.3927 9.89 19.7M12 20C13.1 20 14.125 19.7917 15.075 19.375C16.025 18.9583 16.8667 18.4 17.6 17.7L14.785 12.77L10.669 19.862C10.8523 19.908 11.07 19.9427 11.322 19.966C11.574 19.9893 11.8 20.0007 12 20ZM18.146 17.092C18.6793 16.4087 19.1217 15.6227 19.473 14.734C19.8243 13.8453 20 12.934 20 12C20 11.65 19.9793 11.3127 19.938 10.988C19.8967 10.6633 19.834 10.334 19.75 10H14.07L18.146 17.092ZM12 21C10.7613 21 9.59467 20.7633 8.5 20.29C7.40533 19.816 6.452 19.1727 5.64 18.36C4.828 17.5473 4.18467 16.594 3.71 15.5C3.23533 14.406 2.99867 13.2393 3 12C3 10.7573 3.23667 9.58967 3.71 8.497C4.184 7.40367 4.82733 6.45133 5.64 5.64C6.45267 4.82867 7.406 4.18533 8.5 3.71C9.59467 3.23667 10.7613 3 12 3C13.2427 3 14.4103 3.23667 15.503 3.71C16.5963 4.184 17.549 4.82733 18.361 5.64C19.173 6.45267 19.816 7.405 20.29 8.497C20.7633 9.59033 21 10.758 21 12C21 13.2387 20.7633 14.4053 20.29 15.5C19.816 16.5947 19.1727 17.548 18.36 18.36C17.5473 19.172 16.595 19.8153 15.503 20.29C14.411 20.7647 13.2433 21.0013 12 21Z" fill="black"/>
</svg>
